<?xml version='1.0' encoding='utf-8'?>
<svg xmlns="http://www.w3.org/2000/svg" version="1.1">
  <text x="300.0" y="30" text-anchor="middle" font-size="20">Altimetría del circuito</text>
  <rect x="100" y="50" width="400" height="250" fill="none" stroke-width="2" stroke="black" />
  <text x="300.0" y="340" text-anchor="middle" font-size="14">Distancia (m)</text>
  <text x="50" y="175.0" text-anchor="middle" font-size="14">Altitud (m)</text>
  <text x="100.0" y="320" text-anchor="middle" font-size="12">0</text>
  <line x1="100.0" y1="300" x2="100.0" y2="50" stroke="lightgray" stroke-width="1" />
  <text x="180.0" y="320" text-anchor="middle" font-size="12">778</text>
  <line x1="180.0" y1="300" x2="180.0" y2="50" stroke="lightgray" stroke-width="1" />
  <text x="260.0" y="320" text-anchor="middle" font-size="12">1556</text>
  <line x1="260.0" y1="300" x2="260.0" y2="50" stroke="lightgray" stroke-width="1" />
  <text x="340.0" y="320" text-anchor="middle" font-size="12">2334</text>
  <line x1="340.0" y1="300" x2="340.0" y2="50" stroke="lightgray" stroke-width="1" />
  <text x="420.0" y="320" text-anchor="middle" font-size="12">3112</text>
  <line x1="420.0" y1="300" x2="420.0" y2="50" stroke="lightgray" stroke-width="1" />
  <text x="500.0" y="320" text-anchor="middle" font-size="12">3890</text>
  <line x1="500.0" y1="300" x2="500.0" y2="50" stroke="lightgray" stroke-width="1" />
  <text x="75" y="305.0" text-anchor="end" font-size="12">34</text>
  <line x1="100" y1="300.0" x2="500" y2="300.0" stroke="lightgray" stroke-width="1" />
  <text x="75" y="255.0" text-anchor="end" font-size="12">38</text>
  <line x1="100" y1="250.0" x2="500" y2="250.0" stroke="lightgray" stroke-width="1" />
  <text x="75" y="205.0" text-anchor="end" font-size="12">42</text>
  <line x1="100" y1="200.0" x2="500" y2="200.0" stroke="lightgray" stroke-width="1" />
  <text x="75" y="155.0" text-anchor="end" font-size="12">46</text>
  <line x1="100" y1="150.0" x2="500" y2="150.0" stroke="lightgray" stroke-width="1" />
  <text x="75" y="105.0" text-anchor="end" font-size="12">50</text>
  <line x1="100" y1="100.0" x2="500" y2="100.0" stroke="lightgray" stroke-width="1" />
  <text x="75" y="55.0" text-anchor="end" font-size="12">53</text>
  <line x1="100" y1="50.0" x2="500" y2="50.0" stroke="lightgray" stroke-width="1" />
  <polyline points="100,300 100.0,236.5436089401407 134.96143958868896,157.39585551039698 139.0745501285347,150.23750546681433 143.18766066838046,139.77559739943 165.80976863753213,115.49639193596545 169.9228791773779,114.5307204542388 174.03598971722363,115.38317106609935 178.1491002570694,131.19352477326973 182.77634961439588,154.14629084549273 188.94601542416453,178.2329913652813 193.573264781491,216.7954877091027 211.0539845758355,212.66556294821694 217.22365038560412,192.77169639609866 224.4215938303342,132.8203216971781 247.04370179948586,102.0193144428886 252.69922879177378,76.45653690016314 257.840616966581,55.36344811590024 263.49614395886886,50.0 269.1516709511568,138.9921894977276 330.8483290488432,138.8541657494237 335.98971722365036,141.03705626190953 341.6452442159383,141.03760845738879 346.2724935732648,182.0806142114973 352.95629820051414,216.64615633940483 374.55012853470436,282.08896214315473 381.23393316195376,273.53909697535533 392.54498714652954,273.1911747331084 397.68637532133675,267.5927952492633 412.0822622107969,232.46890816386104 417.73778920308484,228.87037163623998 422.36503856041134,226.84975564703694 432.64781491002566,242.5110789829453 436.7609254498715,300.0 461.439588688946,292.5011991376471 466.5809768637532,297.4092992309139 473.26478149100257,268.19540987146297 479.43444730077124,269.17074851010364 486.1182519280206,226.95194635514957 492.8020565552699,219.94331516038844 500.0,214.1081378790443 500,300" stroke="red" stroke-width="2" fill="orange" />
</svg>