<?xml version='1.0' encoding='utf-8'?>
<svg xmlns="http://www.w3.org/2000/svg" version="2.0">
  <polyline points="50,350 50.0,273.85233072816885 120.64220183486239,178.87502661247638 125.99388379204893,170.28500656017718 131.34556574923548,157.730716879316 174.15902140672785,128.59567032315854 179.51070336391436,127.43686454508656 184.86238532110093,128.4598052793192 190.21406727828747,147.4322297279237 195.565749235474,174.97554901459128 206.2691131498471,203.87958963833754 212.69113149847095,250.15458525092322 244.8012232415902,245.19867553786034 253.36391437308868,221.3260356753184 264.06727828746176,149.3843860366137 306.88073394495416,112.42317733146632 315.44342507645257,81.74784428019575 322.93577981651373,56.43613773908032 330.42813455657495,50.0 337.9204892966361,156.79062739727308 466.3608562691132,156.62499889930842 472.782874617737,159.24446751429144 481.3455657492355,159.24513014886654 487.7675840978593,208.49673705379678 497.40061162079513,249.9753876072858 540.2140672782874,328.5067545717857 550.9174311926606,318.2469163704264 572.3241590214068,317.82940967973013 579.816513761468,311.11135429911593 607.645259938838,268.96268979663324 617.2782874617736,264.64444596348795 623.7003058103976,262.21970677644435 642.966360856269,281.01329477953436 648.3180428134556,350.0 695.4128440366973,341.00143896517653 702.9051987767584,346.8911590770967 711.4678899082569,311.83449184575557 721.1009174311927,313.0048982121244 729.6636085626911,262.34233562617953 739.2966360856269,253.93197819246612 750.0,246.9297654548532 750,350" stroke="red" strokeWith="2" fill="orange" />
</svg>