<?xml version="1.0" encoding="utf-8"?><svg width="auto" height="5570" style="overflow:visible " version="1.1" xmlns="http://www.w3.org/2000/svg"><rect x="20" y="20" width="200" height="40" style="fill:white;stroke:black;stroke-width:1" /><text x="30" y="30" font-size="10" style="fill:blue">circuito</text><rect x="240" y="20" width="200" height="40" style="fill:white;stroke:black;stroke-width:1" /><text x="250" y="30" font-size="10" style="fill:blue">nombre</text><path d="M220 40 C240 40 220 40 240 40" style="fill:transparent;stroke:black" /><rect x="306" y="20" width="137" height="40" style="fill:green;stroke:black;stroke-width:1" /><text x="316" y="30" font-size="8" style="fill:white">Circuito de Jerez – Ángel Nieto</text><rect x="240" y="70" width="200" height="40" style="fill:white;stroke:black;stroke-width:1" /><text x="250" y="80" font-size="10" style="fill:blue">longitud</text><path d="M220 40 C240 40 220 90 240 90" style="fill:transparent;stroke:black" /><text x="250" y="90" font-size="8" style="fill:black">unidades: metros</text><rect x="306" y="70" width="137" height="40" style="fill:green;stroke:black;stroke-width:1" /><text x="316" y="80" font-size="8" style="fill:white">4423</text><rect x="240" y="120" width="200" height="40" style="fill:white;stroke:black;stroke-width:1" /><text x="250" y="130" font-size="10" style="fill:blue">anchura</text><path d="M220 40 C240 40 220 140 240 140" style="fill:transparent;stroke:black" /><text x="250" y="140" font-size="8" style="fill:black">unidades: metros</text><rect x="306" y="120" width="137" height="40" style="fill:green;stroke:black;stroke-width:1" /><text x="316" y="130" font-size="8" style="fill:white">11</text><rect x="240" y="170" width="200" height="40" style="fill:white;stroke:black;stroke-width:1" /><text x="250" y="180" font-size="10" style="fill:blue">fecha</text><path d="M220 40 C240 40 220 190 240 190" style="fill:transparent;stroke:black" /><rect x="306" y="170" width="137" height="40" style="fill:green;stroke:black;stroke-width:1" /><text x="316" y="180" font-size="8" style="fill:white">2025-04-27</text><rect x="240" y="220" width="200" height="40" style="fill:white;stroke:black;stroke-width:1" /><text x="250" y="230" font-size="10" style="fill:blue">hora</text><path d="M220 40 C240 40 220 240 240 240" style="fill:transparent;stroke:black" /><rect x="306" y="220" width="137" height="40" style="fill:green;stroke:black;stroke-width:1" /><text x="316" y="230" font-size="8" style="fill:white">14:00:00</text><rect x="240" y="270" width="200" height="40" style="fill:white;stroke:black;stroke-width:1" /><text x="250" y="280" font-size="10" style="fill:blue">vueltas</text><path d="M220 40 C240 40 220 290 240 290" style="fill:transparent;stroke:black" /><rect x="306" y="270" width="137" height="40" style="fill:green;stroke:black;stroke-width:1" /><text x="316" y="280" font-size="8" style="fill:white">25</text><rect x="240" y="320" width="200" height="40" style="fill:white;stroke:black;stroke-width:1" /><text x="250" y="330" font-size="10" style="fill:blue">localidad</text><path d="M220 40 C240 40 220 340 240 340" style="fill:transparent;stroke:black" /><rect x="306" y="320" width="137" height="40" style="fill:green;stroke:black;stroke-width:1" /><text x="316" y="330" font-size="8" style="fill:white">Jerez de la frontera</text><rect x="240" y="370" width="200" height="40" style="fill:white;stroke:black;stroke-width:1" /><text x="250" y="380" font-size="10" style="fill:blue">pais</text><path d="M220 40 C240 40 220 390 240 390" style="fill:transparent;stroke:black" /><rect x="306" y="370" width="137" height="40" style="fill:green;stroke:black;stroke-width:1" /><text x="316" y="380" font-size="8" style="fill:white">España</text><rect x="240" y="420" width="200" height="40" style="fill:white;stroke:black;stroke-width:1" /><text x="250" y="430" font-size="10" style="fill:blue">patrocinador</text><path d="M220 40 C240 40 220 440 240 440" style="fill:transparent;stroke:black" /><rect x="306" y="420" width="137" height="40" style="fill:green;stroke:black;stroke-width:1" /><text x="316" y="430" font-size="8" style="fill:white">Estrella Galicia</text><rect x="240" y="470" width="200" height="40" style="fill:white;stroke:black;stroke-width:1" /><text x="250" y="480" font-size="10" style="fill:blue">referencias</text><path d="M220 40 C240 40 220 490 240 490" style="fill:transparent;stroke:black" /><rect x="460" y="470" width="200" height="40" style="fill:white;stroke:black;stroke-width:1" /><text x="470" y="480" font-size="10" style="fill:blue">referencia</text><path d="M440 490 C460 490 440 490 460 490" style="fill:transparent;stroke:black" /><rect x="526" y="470" width="137" height="40" style="fill:green;stroke:black;stroke-width:1" /><text x="536" y="480" font-size="8" style="fill:white">https://es.wikipedia.org/wiki/Circuito_de_Jerez</text><rect x="460" y="520" width="200" height="40" style="fill:white;stroke:black;stroke-width:1" /><text x="470" y="530" font-size="10" style="fill:blue">referencia</text><path d="M440 490 C460 490 440 540 460 540" style="fill:transparent;stroke:black" /><rect x="526" y="520" width="137" height="40" style="fill:green;stroke:black;stroke-width:1" /><text x="536" y="530" font-size="8" style="fill:white">https://www.motogp.com/es/circuitos/jerez</text><rect x="460" y="570" width="200" height="40" style="fill:white;stroke:black;stroke-width:1" /><text x="470" y="580" font-size="10" style="fill:blue">referencia</text><path d="M440 490 C460 490 440 590 460 590" style="fill:transparent;stroke:black" /><rect x="526" y="570" width="137" height="40" style="fill:green;stroke:black;stroke-width:1" /><text x="536" y="580" font-size="8" style="fill:white">https://www.formula1.com</text><rect x="240" y="670" width="200" height="40" style="fill:white;stroke:black;stroke-width:1" /><text x="250" y="680" font-size="10" style="fill:blue">fotos</text><path d="M220 40 C240 40 220 690 240 690" style="fill:transparent;stroke:black" /><rect x="460" y="670" width="200" height="40" style="fill:white;stroke:black;stroke-width:1" /><text x="470" y="680" font-size="10" style="fill:blue">foto</text><path d="M440 690 C460 690 440 690 460 690" style="fill:transparent;stroke:black" /><text x="470" y="690" font-size="8" style="fill:black">archivo: Panorama.jpg</text><rect x="526" y="670" width="137" height="40" style="fill:green;stroke:black;stroke-width:1" /><text x="536" y="680" font-size="8" style="fill:white">Vista aérea del circuito</text><rect x="460" y="720" width="200" height="40" style="fill:white;stroke:black;stroke-width:1" /><text x="470" y="730" font-size="10" style="fill:blue">foto</text><path d="M440 690 C460 690 440 740 460 740" style="fill:transparent;stroke:black" /><text x="470" y="740" font-size="8" style="fill:black">archivo: RectaMeta.jpg</text><rect x="526" y="720" width="137" height="40" style="fill:green;stroke:black;stroke-width:1" /><text x="536" y="730" font-size="8" style="fill:white">Recta de meta</text><rect x="460" y="770" width="200" height="40" style="fill:white;stroke:black;stroke-width:1" /><text x="470" y="780" font-size="10" style="fill:blue">foto</text><path d="M440 690 C460 690 440 790 460 790" style="fill:transparent;stroke:black" /><text x="470" y="790" font-size="8" style="fill:black">archivo: CurvaNieto.jpg</text><rect x="526" y="770" width="137" height="40" style="fill:green;stroke:black;stroke-width:1" /><text x="536" y="780" font-size="8" style="fill:white">Curva Ángel Nieto</text><rect x="240" y="870" width="200" height="40" style="fill:white;stroke:black;stroke-width:1" /><text x="250" y="880" font-size="10" style="fill:blue">videos</text><path d="M220 40 C240 40 220 890 240 890" style="fill:transparent;stroke:black" /><rect x="460" y="870" width="200" height="40" style="fill:white;stroke:black;stroke-width:1" /><text x="470" y="880" font-size="10" style="fill:blue">video</text><path d="M440 890 C460 890 440 890 460 890" style="fill:transparent;stroke:black" /><text x="470" y="890" font-size="8" style="fill:black">archivo: VueltaRapida.mp4</text><rect x="526" y="870" width="137" height="40" style="fill:green;stroke:black;stroke-width:1" /><text x="536" y="880" font-size="8" style="fill:white">Vuelta rápida a bordo</text><rect x="460" y="920" width="200" height="40" style="fill:white;stroke:black;stroke-width:1" /><text x="470" y="930" font-size="10" style="fill:blue">video</text><path d="M440 890 C460 890 440 940 460 940" style="fill:transparent;stroke:black" /><text x="470" y="940" font-size="8" style="fill:black">archivo: Presentacion.mp4</text><rect x="526" y="920" width="137" height="40" style="fill:green;stroke:black;stroke-width:1" /><text x="536" y="930" font-size="8" style="fill:white">Presentación del circuito</text><rect x="240" y="1020" width="200" height="40" style="fill:white;stroke:black;stroke-width:1" /><text x="250" y="1030" font-size="10" style="fill:blue">punto_origen</text><path d="M220 40 C240 40 220 1040 240 1040" style="fill:transparent;stroke:black" /><rect x="460" y="1020" width="200" height="40" style="fill:white;stroke:black;stroke-width:1" /><text x="470" y="1030" font-size="10" style="fill:blue">longitud_geo</text><path d="M440 1040 C460 1040 440 1040 460 1040" style="fill:transparent;stroke:black" /><rect x="526" y="1020" width="137" height="40" style="fill:green;stroke:black;stroke-width:1" /><text x="536" y="1030" font-size="8" style="fill:white">-6.0322</text><rect x="460" y="1070" width="200" height="40" style="fill:white;stroke:black;stroke-width:1" /><text x="470" y="1080" font-size="10" style="fill:blue">latitud_geo</text><path d="M440 1040 C460 1040 440 1090 460 1090" style="fill:transparent;stroke:black" /><rect x="526" y="1070" width="137" height="40" style="fill:green;stroke:black;stroke-width:1" /><text x="536" y="1080" font-size="8" style="fill:white">36.7094</text><rect x="460" y="1120" width="200" height="40" style="fill:white;stroke:black;stroke-width:1" /><text x="470" y="1130" font-size="10" style="fill:blue">altitud_geo</text><path d="M440 1040 C460 1040 440 1140 460 1140" style="fill:transparent;stroke:black" /><rect x="526" y="1120" width="137" height="40" style="fill:green;stroke:black;stroke-width:1" /><text x="536" y="1130" font-size="8" style="fill:white">39.08</text><rect x="240" y="1220" width="200" height="40" style="fill:white;stroke:black;stroke-width:1" /><text x="250" y="1230" font-size="10" style="fill:blue">tramos</text><path d="M220 40 C240 40 220 1240 240 1240" style="fill:transparent;stroke:black" /><rect x="460" y="1220" width="200" height="40" style="fill:white;stroke:black;stroke-width:1" /><text x="470" y="1230" font-size="10" style="fill:blue">tramo</text><path d="M440 1240 C460 1240 440 1240 460 1240" style="fill:transparent;stroke:black" /><rect x="680" y="1220" width="200" height="40" style="fill:white;stroke:black;stroke-width:1" /><text x="690" y="1230" font-size="10" style="fill:blue">distancia</text><path d="M660 1240 C680 1240 660 1240 680 1240" style="fill:transparent;stroke:black" /><text x="690" y="1240" font-size="8" style="fill:black">unidades: metros</text><rect x="746" y="1220" width="137" height="40" style="fill:green;stroke:black;stroke-width:1" /><text x="756" y="1230" font-size="8" style="fill:white">350</text><rect x="680" y="1270" width="200" height="40" style="fill:white;stroke:black;stroke-width:1" /><text x="690" y="1280" font-size="10" style="fill:blue">longitud_geo</text><path d="M660 1240 C680 1240 660 1290 680 1290" style="fill:transparent;stroke:black" /><rect x="746" y="1270" width="137" height="40" style="fill:green;stroke:black;stroke-width:1" /><text x="756" y="1280" font-size="8" style="fill:white">-6.0336</text><rect x="680" y="1320" width="200" height="40" style="fill:white;stroke:black;stroke-width:1" /><text x="690" y="1330" font-size="10" style="fill:blue">latitud_geo</text><path d="M660 1240 C680 1240 660 1340 680 1340" style="fill:transparent;stroke:black" /><rect x="746" y="1320" width="137" height="40" style="fill:green;stroke:black;stroke-width:1" /><text x="756" y="1330" font-size="8" style="fill:white">36.7125</text><rect x="680" y="1370" width="200" height="40" style="fill:white;stroke:black;stroke-width:1" /><text x="690" y="1380" font-size="10" style="fill:blue">altitud_geo</text><path d="M660 1240 C680 1240 660 1390 680 1390" style="fill:transparent;stroke:black" /><rect x="746" y="1370" width="137" height="40" style="fill:green;stroke:black;stroke-width:1" /><text x="756" y="1380" font-size="8" style="fill:white">45.77</text><rect x="680" y="1420" width="200" height="40" style="fill:white;stroke:black;stroke-width:1" /><text x="690" y="1430" font-size="10" style="fill:blue">sector</text><path d="M660 1240 C680 1240 660 1440 680 1440" style="fill:transparent;stroke:black" /><rect x="746" y="1420" width="137" height="40" style="fill:green;stroke:black;stroke-width:1" /><text x="756" y="1430" font-size="8" style="fill:white">1</text><rect x="460" y="1520" width="200" height="40" style="fill:white;stroke:black;stroke-width:1" /><text x="470" y="1530" font-size="10" style="fill:blue">tramo</text><path d="M440 1240 C460 1240 440 1540 460 1540" style="fill:transparent;stroke:black" /><rect x="680" y="1520" width="200" height="40" style="fill:white;stroke:black;stroke-width:1" /><text x="690" y="1530" font-size="10" style="fill:blue">distancia</text><path d="M660 1540 C680 1540 660 1540 680 1540" style="fill:transparent;stroke:black" /><text x="690" y="1540" font-size="8" style="fill:black">unidades: metros</text><rect x="746" y="1520" width="137" height="40" style="fill:green;stroke:black;stroke-width:1" /><text x="756" y="1530" font-size="8" style="fill:white">250</text><rect x="680" y="1570" width="200" height="40" style="fill:white;stroke:black;stroke-width:1" /><text x="690" y="1580" font-size="10" style="fill:blue">longitud_geo</text><path d="M660 1540 C680 1540 660 1590 680 1590" style="fill:transparent;stroke:black" /><rect x="746" y="1570" width="137" height="40" style="fill:green;stroke:black;stroke-width:1" /><text x="756" y="1580" font-size="8" style="fill:white">-6.0311</text><rect x="680" y="1620" width="200" height="40" style="fill:white;stroke:black;stroke-width:1" /><text x="690" y="1630" font-size="10" style="fill:blue">latitud_geo</text><path d="M660 1540 C680 1540 660 1640 680 1640" style="fill:transparent;stroke:black" /><rect x="746" y="1620" width="137" height="40" style="fill:green;stroke:black;stroke-width:1" /><text x="756" y="1630" font-size="8" style="fill:white">36.7125</text><rect x="680" y="1670" width="200" height="40" style="fill:white;stroke:black;stroke-width:1" /><text x="690" y="1680" font-size="10" style="fill:blue">altitud_geo</text><path d="M660 1540 C680 1540 660 1690 680 1690" style="fill:transparent;stroke:black" /><rect x="746" y="1670" width="137" height="40" style="fill:green;stroke:black;stroke-width:1" /><text x="756" y="1680" font-size="8" style="fill:white">48.70</text><rect x="680" y="1720" width="200" height="40" style="fill:white;stroke:black;stroke-width:1" /><text x="690" y="1730" font-size="10" style="fill:blue">sector</text><path d="M660 1540 C680 1540 660 1740 680 1740" style="fill:transparent;stroke:black" /><rect x="746" y="1720" width="137" height="40" style="fill:green;stroke:black;stroke-width:1" /><text x="756" y="1730" font-size="8" style="fill:white">1</text><rect x="460" y="1820" width="200" height="40" style="fill:white;stroke:black;stroke-width:1" /><text x="470" y="1830" font-size="10" style="fill:blue">tramo</text><path d="M440 1240 C460 1240 440 1840 460 1840" style="fill:transparent;stroke:black" /><rect x="680" y="1820" width="200" height="40" style="fill:white;stroke:black;stroke-width:1" /><text x="690" y="1830" font-size="10" style="fill:blue">distancia</text><path d="M660 1840 C680 1840 660 1840 680 1840" style="fill:transparent;stroke:black" /><text x="690" y="1840" font-size="8" style="fill:black">unidades: metros</text><rect x="746" y="1820" width="137" height="40" style="fill:green;stroke:black;stroke-width:1" /><text x="756" y="1830" font-size="8" style="fill:white">100</text><rect x="680" y="1870" width="200" height="40" style="fill:white;stroke:black;stroke-width:1" /><text x="690" y="1880" font-size="10" style="fill:blue">longitud_geo</text><path d="M660 1840 C680 1840 660 1890 680 1890" style="fill:transparent;stroke:black" /><rect x="746" y="1870" width="137" height="40" style="fill:green;stroke:black;stroke-width:1" /><text x="756" y="1880" font-size="8" style="fill:white">-6.0317</text><rect x="680" y="1920" width="200" height="40" style="fill:white;stroke:black;stroke-width:1" /><text x="690" y="1930" font-size="10" style="fill:blue">latitud_geo</text><path d="M660 1840 C680 1840 660 1940 680 1940" style="fill:transparent;stroke:black" /><rect x="746" y="1920" width="137" height="40" style="fill:green;stroke:black;stroke-width:1" /><text x="756" y="1930" font-size="8" style="fill:white">36.7117</text><rect x="680" y="1970" width="200" height="40" style="fill:white;stroke:black;stroke-width:1" /><text x="690" y="1980" font-size="10" style="fill:blue">altitud_geo</text><path d="M660 1840 C680 1840 660 1990 680 1990" style="fill:transparent;stroke:black" /><rect x="746" y="1970" width="137" height="40" style="fill:green;stroke:black;stroke-width:1" /><text x="756" y="1980" font-size="8" style="fill:white">44.72</text><rect x="680" y="2020" width="200" height="40" style="fill:white;stroke:black;stroke-width:1" /><text x="690" y="2030" font-size="10" style="fill:blue">sector</text><path d="M660 1840 C680 1840 660 2040 680 2040" style="fill:transparent;stroke:black" /><rect x="746" y="2020" width="137" height="40" style="fill:green;stroke:black;stroke-width:1" /><text x="756" y="2030" font-size="8" style="fill:white">2</text><rect x="460" y="2120" width="200" height="40" style="fill:white;stroke:black;stroke-width:1" /><text x="470" y="2130" font-size="10" style="fill:blue">tramo</text><path d="M440 1240 C460 1240 440 2140 460 2140" style="fill:transparent;stroke:black" /><rect x="680" y="2120" width="200" height="40" style="fill:white;stroke:black;stroke-width:1" /><text x="690" y="2130" font-size="10" style="fill:blue">distancia</text><path d="M660 2140 C680 2140 660 2140 680 2140" style="fill:transparent;stroke:black" /><text x="690" y="2140" font-size="8" style="fill:black">unidades: metros</text><rect x="746" y="2120" width="137" height="40" style="fill:green;stroke:black;stroke-width:1" /><text x="756" y="2130" font-size="8" style="fill:white">250</text><rect x="680" y="2170" width="200" height="40" style="fill:white;stroke:black;stroke-width:1" /><text x="690" y="2180" font-size="10" style="fill:blue">longitud_geo</text><path d="M660 2140 C680 2140 660 2190 680 2190" style="fill:transparent;stroke:black" /><rect x="746" y="2170" width="137" height="40" style="fill:green;stroke:black;stroke-width:1" /><text x="756" y="2180" font-size="8" style="fill:white">-6.0317</text><rect x="680" y="2220" width="200" height="40" style="fill:white;stroke:black;stroke-width:1" /><text x="690" y="2230" font-size="10" style="fill:blue">latitud_geo</text><path d="M660 2140 C680 2140 660 2240 680 2240" style="fill:transparent;stroke:black" /><rect x="746" y="2220" width="137" height="40" style="fill:green;stroke:black;stroke-width:1" /><text x="756" y="2230" font-size="8" style="fill:white">36.7097</text><rect x="680" y="2270" width="200" height="40" style="fill:white;stroke:black;stroke-width:1" /><text x="690" y="2280" font-size="10" style="fill:blue">altitud_geo</text><path d="M660 2140 C680 2140 660 2290 680 2290" style="fill:transparent;stroke:black" /><rect x="746" y="2270" width="137" height="40" style="fill:green;stroke:black;stroke-width:1" /><text x="756" y="2280" font-size="8" style="fill:white">40.31</text><rect x="680" y="2320" width="200" height="40" style="fill:white;stroke:black;stroke-width:1" /><text x="690" y="2330" font-size="10" style="fill:blue">sector</text><path d="M660 2140 C680 2140 660 2340 680 2340" style="fill:transparent;stroke:black" /><rect x="746" y="2320" width="137" height="40" style="fill:green;stroke:black;stroke-width:1" /><text x="756" y="2330" font-size="8" style="fill:white">2</text><rect x="460" y="2420" width="200" height="40" style="fill:white;stroke:black;stroke-width:1" /><text x="470" y="2430" font-size="10" style="fill:blue">tramo</text><path d="M440 1240 C460 1240 440 2440 460 2440" style="fill:transparent;stroke:black" /><rect x="680" y="2420" width="200" height="40" style="fill:white;stroke:black;stroke-width:1" /><text x="690" y="2430" font-size="10" style="fill:blue">distancia</text><path d="M660 2440 C680 2440 660 2440 680 2440" style="fill:transparent;stroke:black" /><text x="690" y="2440" font-size="8" style="fill:black">unidades: metros</text><rect x="746" y="2420" width="137" height="40" style="fill:green;stroke:black;stroke-width:1" /><text x="756" y="2430" font-size="8" style="fill:white">750</text><rect x="680" y="2470" width="200" height="40" style="fill:white;stroke:black;stroke-width:1" /><text x="690" y="2480" font-size="10" style="fill:blue">longitud_geo</text><path d="M660 2440 C680 2440 660 2490 680 2490" style="fill:transparent;stroke:black" /><rect x="746" y="2470" width="137" height="40" style="fill:green;stroke:black;stroke-width:1" /><text x="756" y="2480" font-size="8" style="fill:white">-6.0261</text><rect x="680" y="2520" width="200" height="40" style="fill:white;stroke:black;stroke-width:1" /><text x="690" y="2530" font-size="10" style="fill:blue">latitud_geo</text><path d="M660 2440 C680 2440 660 2540 680 2540" style="fill:transparent;stroke:black" /><rect x="746" y="2520" width="137" height="40" style="fill:green;stroke:black;stroke-width:1" /><text x="756" y="2530" font-size="8" style="fill:white">36.7083</text><rect x="680" y="2570" width="200" height="40" style="fill:white;stroke:black;stroke-width:1" /><text x="690" y="2580" font-size="10" style="fill:blue">altitud_geo</text><path d="M660 2440 C680 2440 660 2590 680 2590" style="fill:transparent;stroke:black" /><rect x="746" y="2570" width="137" height="40" style="fill:green;stroke:black;stroke-width:1" /><text x="756" y="2580" font-size="8" style="fill:white">50.33</text><rect x="680" y="2620" width="200" height="40" style="fill:white;stroke:black;stroke-width:1" /><text x="690" y="2630" font-size="10" style="fill:blue">sector</text><path d="M660 2440 C680 2440 660 2640 680 2640" style="fill:transparent;stroke:black" /><rect x="746" y="2620" width="137" height="40" style="fill:green;stroke:black;stroke-width:1" /><text x="756" y="2630" font-size="8" style="fill:white">2</text><rect x="460" y="2720" width="200" height="40" style="fill:white;stroke:black;stroke-width:1" /><text x="470" y="2730" font-size="10" style="fill:blue">tramo</text><path d="M440 1240 C460 1240 440 2740 460 2740" style="fill:transparent;stroke:black" /><rect x="680" y="2720" width="200" height="40" style="fill:white;stroke:black;stroke-width:1" /><text x="690" y="2730" font-size="10" style="fill:blue">distancia</text><path d="M660 2740 C680 2740 660 2740 680 2740" style="fill:transparent;stroke:black" /><text x="690" y="2740" font-size="8" style="fill:black">unidades: metros</text><rect x="746" y="2720" width="137" height="40" style="fill:green;stroke:black;stroke-width:1" /><text x="756" y="2730" font-size="8" style="fill:white">250</text><rect x="680" y="2770" width="200" height="40" style="fill:white;stroke:black;stroke-width:1" /><text x="690" y="2780" font-size="10" style="fill:blue">longitud_geo</text><path d="M660 2740 C680 2740 660 2790 680 2790" style="fill:transparent;stroke:black" /><rect x="746" y="2770" width="137" height="40" style="fill:green;stroke:black;stroke-width:1" /><text x="756" y="2780" font-size="8" style="fill:white">-6.0331</text><rect x="680" y="2820" width="200" height="40" style="fill:white;stroke:black;stroke-width:1" /><text x="690" y="2830" font-size="10" style="fill:blue">latitud_geo</text><path d="M660 2740 C680 2740 660 2840 680 2840" style="fill:transparent;stroke:black" /><rect x="746" y="2820" width="137" height="40" style="fill:green;stroke:black;stroke-width:1" /><text x="756" y="2830" font-size="8" style="fill:white">36.7042</text><rect x="680" y="2870" width="200" height="40" style="fill:white;stroke:black;stroke-width:1" /><text x="690" y="2880" font-size="10" style="fill:blue">altitud_geo</text><path d="M660 2740 C680 2740 660 2890 680 2890" style="fill:transparent;stroke:black" /><rect x="746" y="2870" width="137" height="40" style="fill:green;stroke:black;stroke-width:1" /><text x="756" y="2880" font-size="8" style="fill:white">45.80</text><rect x="680" y="2920" width="200" height="40" style="fill:white;stroke:black;stroke-width:1" /><text x="690" y="2930" font-size="10" style="fill:blue">sector</text><path d="M660 2740 C680 2740 660 2940 680 2940" style="fill:transparent;stroke:black" /><rect x="746" y="2920" width="137" height="40" style="fill:green;stroke:black;stroke-width:1" /><text x="756" y="2930" font-size="8" style="fill:white">2</text><rect x="460" y="3020" width="200" height="40" style="fill:white;stroke:black;stroke-width:1" /><text x="470" y="3030" font-size="10" style="fill:blue">tramo</text><path d="M440 1240 C460 1240 440 3040 460 3040" style="fill:transparent;stroke:black" /><rect x="680" y="3020" width="200" height="40" style="fill:white;stroke:black;stroke-width:1" /><text x="690" y="3030" font-size="10" style="fill:blue">distancia</text><path d="M660 3040 C680 3040 660 3040 680 3040" style="fill:transparent;stroke:black" /><text x="690" y="3040" font-size="8" style="fill:black">unidades: metros</text><rect x="746" y="3020" width="137" height="40" style="fill:green;stroke:black;stroke-width:1" /><text x="756" y="3030" font-size="8" style="fill:white">300</text><rect x="680" y="3070" width="200" height="40" style="fill:white;stroke:black;stroke-width:1" /><text x="690" y="3080" font-size="10" style="fill:blue">longitud_geo</text><path d="M660 3040 C680 3040 660 3090 680 3090" style="fill:transparent;stroke:black" /><rect x="746" y="3070" width="137" height="40" style="fill:green;stroke:black;stroke-width:1" /><text x="756" y="3080" font-size="8" style="fill:white">-6.0322</text><rect x="680" y="3120" width="200" height="40" style="fill:white;stroke:black;stroke-width:1" /><text x="690" y="3130" font-size="10" style="fill:blue">latitud_geo</text><path d="M660 3040 C680 3040 660 3140 680 3140" style="fill:transparent;stroke:black" /><rect x="746" y="3120" width="137" height="40" style="fill:green;stroke:black;stroke-width:1" /><text x="756" y="3130" font-size="8" style="fill:white">36.7064</text><rect x="680" y="3170" width="200" height="40" style="fill:white;stroke:black;stroke-width:1" /><text x="690" y="3180" font-size="10" style="fill:blue">altitud_geo</text><path d="M660 3040 C680 3040 660 3190 680 3190" style="fill:transparent;stroke:black" /><rect x="746" y="3170" width="137" height="40" style="fill:green;stroke:black;stroke-width:1" /><text x="756" y="3180" font-size="8" style="fill:white">40.11</text><rect x="680" y="3220" width="200" height="40" style="fill:white;stroke:black;stroke-width:1" /><text x="690" y="3230" font-size="10" style="fill:blue">sector</text><path d="M660 3040 C680 3040 660 3240 680 3240" style="fill:transparent;stroke:black" /><rect x="746" y="3220" width="137" height="40" style="fill:green;stroke:black;stroke-width:1" /><text x="756" y="3230" font-size="8" style="fill:white">3</text><rect x="460" y="3320" width="200" height="40" style="fill:white;stroke:black;stroke-width:1" /><text x="470" y="3330" font-size="10" style="fill:blue">tramo</text><path d="M440 1240 C460 1240 440 3340 460 3340" style="fill:transparent;stroke:black" /><rect x="680" y="3320" width="200" height="40" style="fill:white;stroke:black;stroke-width:1" /><text x="690" y="3330" font-size="10" style="fill:blue">distancia</text><path d="M660 3340 C680 3340 660 3340 680 3340" style="fill:transparent;stroke:black" /><text x="690" y="3340" font-size="8" style="fill:black">unidades: metros</text><rect x="746" y="3320" width="137" height="40" style="fill:green;stroke:black;stroke-width:1" /><text x="756" y="3330" font-size="8" style="fill:white">350</text><rect x="680" y="3370" width="200" height="40" style="fill:white;stroke:black;stroke-width:1" /><text x="690" y="3380" font-size="10" style="fill:blue">longitud_geo</text><path d="M660 3340 C680 3340 660 3390 680 3390" style="fill:transparent;stroke:black" /><rect x="746" y="3370" width="137" height="40" style="fill:green;stroke:black;stroke-width:1" /><text x="756" y="3380" font-size="8" style="fill:white">-6.0344</text><rect x="680" y="3420" width="200" height="40" style="fill:white;stroke:black;stroke-width:1" /><text x="690" y="3430" font-size="10" style="fill:blue">latitud_geo</text><path d="M660 3340 C680 3340 660 3440 680 3440" style="fill:transparent;stroke:black" /><rect x="746" y="3420" width="137" height="40" style="fill:green;stroke:black;stroke-width:1" /><text x="756" y="3430" font-size="8" style="fill:white">36.7081</text><rect x="680" y="3470" width="200" height="40" style="fill:white;stroke:black;stroke-width:1" /><text x="690" y="3480" font-size="10" style="fill:blue">altitud_geo</text><path d="M660 3340 C680 3340 660 3490 680 3490" style="fill:transparent;stroke:black" /><rect x="746" y="3470" width="137" height="40" style="fill:green;stroke:black;stroke-width:1" /><text x="756" y="3480" font-size="8" style="fill:white">35.96</text><rect x="680" y="3520" width="200" height="40" style="fill:white;stroke:black;stroke-width:1" /><text x="690" y="3530" font-size="10" style="fill:blue">sector</text><path d="M660 3340 C680 3340 660 3540 680 3540" style="fill:transparent;stroke:black" /><rect x="746" y="3520" width="137" height="40" style="fill:green;stroke:black;stroke-width:1" /><text x="756" y="3530" font-size="8" style="fill:white">3</text><rect x="460" y="3620" width="200" height="40" style="fill:white;stroke:black;stroke-width:1" /><text x="470" y="3630" font-size="10" style="fill:blue">tramo</text><path d="M440 1240 C460 1240 440 3640 460 3640" style="fill:transparent;stroke:black" /><rect x="680" y="3620" width="200" height="40" style="fill:white;stroke:black;stroke-width:1" /><text x="690" y="3630" font-size="10" style="fill:blue">distancia</text><path d="M660 3640 C680 3640 660 3640 680 3640" style="fill:transparent;stroke:black" /><text x="690" y="3640" font-size="8" style="fill:black">unidades: metros</text><rect x="746" y="3620" width="137" height="40" style="fill:green;stroke:black;stroke-width:1" /><text x="756" y="3630" font-size="8" style="fill:white">150</text><rect x="680" y="3670" width="200" height="40" style="fill:white;stroke:black;stroke-width:1" /><text x="690" y="3680" font-size="10" style="fill:blue">longitud_geo</text><path d="M660 3640 C680 3640 660 3690 680 3690" style="fill:transparent;stroke:black" /><rect x="746" y="3670" width="137" height="40" style="fill:green;stroke:black;stroke-width:1" /><text x="756" y="3680" font-size="8" style="fill:white">-6.0364</text><rect x="680" y="3720" width="200" height="40" style="fill:white;stroke:black;stroke-width:1" /><text x="690" y="3730" font-size="10" style="fill:blue">latitud_geo</text><path d="M660 3640 C680 3640 660 3740 680 3740" style="fill:transparent;stroke:black" /><rect x="746" y="3720" width="137" height="40" style="fill:green;stroke:black;stroke-width:1" /><text x="756" y="3730" font-size="8" style="fill:white">36.7058</text><rect x="680" y="3770" width="200" height="40" style="fill:white;stroke:black;stroke-width:1" /><text x="690" y="3780" font-size="10" style="fill:blue">altitud_geo</text><path d="M660 3640 C680 3640 660 3790 680 3790" style="fill:transparent;stroke:black" /><rect x="746" y="3770" width="137" height="40" style="fill:green;stroke:black;stroke-width:1" /><text x="756" y="3780" font-size="8" style="fill:white">39.25</text><rect x="680" y="3820" width="200" height="40" style="fill:white;stroke:black;stroke-width:1" /><text x="690" y="3830" font-size="10" style="fill:blue">sector</text><path d="M660 3640 C680 3640 660 3840 680 3840" style="fill:transparent;stroke:black" /><rect x="746" y="3820" width="137" height="40" style="fill:green;stroke:black;stroke-width:1" /><text x="756" y="3830" font-size="8" style="fill:white">3</text><rect x="460" y="3920" width="200" height="40" style="fill:white;stroke:black;stroke-width:1" /><text x="470" y="3930" font-size="10" style="fill:blue">tramo</text><path d="M440 1240 C460 1240 440 3940 460 3940" style="fill:transparent;stroke:black" /><rect x="680" y="3920" width="200" height="40" style="fill:white;stroke:black;stroke-width:1" /><text x="690" y="3930" font-size="10" style="fill:blue">distancia</text><path d="M660 3940 C680 3940 660 3940 680 3940" style="fill:transparent;stroke:black" /><text x="690" y="3940" font-size="8" style="fill:black">unidades: metros</text><rect x="746" y="3920" width="137" height="40" style="fill:green;stroke:black;stroke-width:1" /><text x="756" y="3930" font-size="8" style="fill:white">350</text><rect x="680" y="3970" width="200" height="40" style="fill:white;stroke:black;stroke-width:1" /><text x="690" y="3980" font-size="10" style="fill:blue">longitud_geo</text><path d="M660 3940 C680 3940 660 3990 680 3990" style="fill:transparent;stroke:black" /><rect x="746" y="3970" width="137" height="40" style="fill:green;stroke:black;stroke-width:1" /><text x="756" y="3980" font-size="8" style="fill:white">-6.0378</text><rect x="680" y="4020" width="200" height="40" style="fill:white;stroke:black;stroke-width:1" /><text x="690" y="4030" font-size="10" style="fill:blue">latitud_geo</text><path d="M660 3940 C680 3940 660 4040 680 4040" style="fill:transparent;stroke:black" /><rect x="746" y="4020" width="137" height="40" style="fill:green;stroke:black;stroke-width:1" /><text x="756" y="4030" font-size="8" style="fill:white">36.7067</text><rect x="680" y="4070" width="200" height="40" style="fill:white;stroke:black;stroke-width:1" /><text x="690" y="4080" font-size="10" style="fill:blue">altitud_geo</text><path d="M660 3940 C680 3940 660 4090 680 4090" style="fill:transparent;stroke:black" /><rect x="746" y="4070" width="137" height="40" style="fill:green;stroke:black;stroke-width:1" /><text x="756" y="4080" font-size="8" style="fill:white">38.84</text><rect x="680" y="4120" width="200" height="40" style="fill:white;stroke:black;stroke-width:1" /><text x="690" y="4130" font-size="10" style="fill:blue">sector</text><path d="M660 3940 C680 3940 660 4140 680 4140" style="fill:transparent;stroke:black" /><rect x="746" y="4120" width="137" height="40" style="fill:green;stroke:black;stroke-width:1" /><text x="756" y="4130" font-size="8" style="fill:white">3</text><rect x="460" y="4220" width="200" height="40" style="fill:white;stroke:black;stroke-width:1" /><text x="470" y="4230" font-size="10" style="fill:blue">tramo</text><path d="M440 1240 C460 1240 440 4240 460 4240" style="fill:transparent;stroke:black" /><rect x="680" y="4220" width="200" height="40" style="fill:white;stroke:black;stroke-width:1" /><text x="690" y="4230" font-size="10" style="fill:blue">distancia</text><path d="M660 4240 C680 4240 660 4240 680 4240" style="fill:transparent;stroke:black" /><text x="690" y="4240" font-size="8" style="fill:black">unidades: metros</text><rect x="746" y="4220" width="137" height="40" style="fill:green;stroke:black;stroke-width:1" /><text x="756" y="4230" font-size="8" style="fill:white">200</text><rect x="680" y="4270" width="200" height="40" style="fill:white;stroke:black;stroke-width:1" /><text x="690" y="4280" font-size="10" style="fill:blue">longitud_geo</text><path d="M660 4240 C680 4240 660 4290 680 4290" style="fill:transparent;stroke:black" /><rect x="746" y="4270" width="137" height="40" style="fill:green;stroke:black;stroke-width:1" /><text x="756" y="4280" font-size="8" style="fill:white">-6.0358</text><rect x="680" y="4320" width="200" height="40" style="fill:white;stroke:black;stroke-width:1" /><text x="690" y="4330" font-size="10" style="fill:blue">latitud_geo</text><path d="M660 4240 C680 4240 660 4340 680 4340" style="fill:transparent;stroke:black" /><rect x="746" y="4320" width="137" height="40" style="fill:green;stroke:black;stroke-width:1" /><text x="756" y="4330" font-size="8" style="fill:white">36.7092</text><rect x="680" y="4370" width="200" height="40" style="fill:white;stroke:black;stroke-width:1" /><text x="690" y="4380" font-size="10" style="fill:blue">altitud_geo</text><path d="M660 4240 C680 4240 660 4390 680 4390" style="fill:transparent;stroke:black" /><rect x="746" y="4370" width="137" height="40" style="fill:green;stroke:black;stroke-width:1" /><text x="756" y="4380" font-size="8" style="fill:white">33.94</text><rect x="680" y="4420" width="200" height="40" style="fill:white;stroke:black;stroke-width:1" /><text x="690" y="4430" font-size="10" style="fill:blue">sector</text><path d="M660 4240 C680 4240 660 4440 680 4440" style="fill:transparent;stroke:black" /><rect x="746" y="4420" width="137" height="40" style="fill:green;stroke:black;stroke-width:1" /><text x="756" y="4430" font-size="8" style="fill:white">4</text><rect x="460" y="4520" width="200" height="40" style="fill:white;stroke:black;stroke-width:1" /><text x="470" y="4530" font-size="10" style="fill:blue">tramo</text><path d="M440 1240 C460 1240 440 4540 460 4540" style="fill:transparent;stroke:black" /><rect x="680" y="4520" width="200" height="40" style="fill:white;stroke:black;stroke-width:1" /><text x="690" y="4530" font-size="10" style="fill:blue">distancia</text><path d="M660 4540 C680 4540 660 4540 680 4540" style="fill:transparent;stroke:black" /><text x="690" y="4540" font-size="8" style="fill:black">unidades: metros</text><rect x="746" y="4520" width="137" height="40" style="fill:green;stroke:black;stroke-width:1" /><text x="756" y="4530" font-size="8" style="fill:white">350</text><rect x="680" y="4570" width="200" height="40" style="fill:white;stroke:black;stroke-width:1" /><text x="690" y="4580" font-size="10" style="fill:blue">longitud_geo</text><path d="M660 4540 C680 4540 660 4590 680 4590" style="fill:transparent;stroke:black" /><rect x="746" y="4570" width="137" height="40" style="fill:green;stroke:black;stroke-width:1" /><text x="756" y="4580" font-size="8" style="fill:white">-6.0344</text><rect x="680" y="4620" width="200" height="40" style="fill:white;stroke:black;stroke-width:1" /><text x="690" y="4630" font-size="10" style="fill:blue">latitud_geo</text><path d="M660 4540 C680 4540 660 4640 680 4640" style="fill:transparent;stroke:black" /><rect x="746" y="4620" width="137" height="40" style="fill:green;stroke:black;stroke-width:1" /><text x="756" y="4630" font-size="8" style="fill:white">36.7089</text><rect x="680" y="4670" width="200" height="40" style="fill:white;stroke:black;stroke-width:1" /><text x="690" y="4680" font-size="10" style="fill:blue">altitud_geo</text><path d="M660 4540 C680 4540 660 4690 680 4690" style="fill:transparent;stroke:black" /><rect x="746" y="4670" width="137" height="40" style="fill:green;stroke:black;stroke-width:1" /><text x="756" y="4680" font-size="8" style="fill:white">36.26</text><rect x="680" y="4720" width="200" height="40" style="fill:white;stroke:black;stroke-width:1" /><text x="690" y="4730" font-size="10" style="fill:blue">sector</text><path d="M660 4540 C680 4540 660 4740 680 4740" style="fill:transparent;stroke:black" /><rect x="746" y="4720" width="137" height="40" style="fill:green;stroke:black;stroke-width:1" /><text x="756" y="4730" font-size="8" style="fill:white">4</text><rect x="460" y="4820" width="200" height="40" style="fill:white;stroke:black;stroke-width:1" /><text x="470" y="4830" font-size="10" style="fill:blue">tramo</text><path d="M440 1240 C460 1240 440 4840 460 4840" style="fill:transparent;stroke:black" /><rect x="680" y="4820" width="200" height="40" style="fill:white;stroke:black;stroke-width:1" /><text x="690" y="4830" font-size="10" style="fill:blue">distancia</text><path d="M660 4840 C680 4840 660 4840 680 4840" style="fill:transparent;stroke:black" /><text x="690" y="4840" font-size="8" style="fill:black">unidades: metros</text><rect x="746" y="4820" width="137" height="40" style="fill:green;stroke:black;stroke-width:1" /><text x="756" y="4830" font-size="8" style="fill:white">300</text><rect x="680" y="4870" width="200" height="40" style="fill:white;stroke:black;stroke-width:1" /><text x="690" y="4880" font-size="10" style="fill:blue">longitud_geo</text><path d="M660 4840 C680 4840 660 4890 680 4890" style="fill:transparent;stroke:black" /><rect x="746" y="4870" width="137" height="40" style="fill:green;stroke:black;stroke-width:1" /><text x="756" y="4880" font-size="8" style="fill:white">-6.0314</text><rect x="680" y="4920" width="200" height="40" style="fill:white;stroke:black;stroke-width:1" /><text x="690" y="4930" font-size="10" style="fill:blue">latitud_geo</text><path d="M660 4840 C680 4840 660 4940 680 4940" style="fill:transparent;stroke:black" /><rect x="746" y="4920" width="137" height="40" style="fill:green;stroke:black;stroke-width:1" /><text x="756" y="4930" font-size="8" style="fill:white">36.7067</text><rect x="680" y="4970" width="200" height="40" style="fill:white;stroke:black;stroke-width:1" /><text x="690" y="4980" font-size="10" style="fill:blue">altitud_geo</text><path d="M660 4840 C680 4840 660 4990 680 4990" style="fill:transparent;stroke:black" /><rect x="746" y="4970" width="137" height="40" style="fill:green;stroke:black;stroke-width:1" /><text x="756" y="4980" font-size="8" style="fill:white">40.66</text><rect x="680" y="5020" width="200" height="40" style="fill:white;stroke:black;stroke-width:1" /><text x="690" y="5030" font-size="10" style="fill:blue">sector</text><path d="M660 4840 C680 4840 660 5040 680 5040" style="fill:transparent;stroke:black" /><rect x="746" y="5020" width="137" height="40" style="fill:green;stroke:black;stroke-width:1" /><text x="756" y="5030" font-size="8" style="fill:white">4</text><rect x="240" y="5170" width="200" height="40" style="fill:white;stroke:black;stroke-width:1" /><text x="250" y="5180" font-size="10" style="fill:blue">resultado</text><path d="M220 40 C240 40 220 5190 240 5190" style="fill:transparent;stroke:black" /><rect x="460" y="5170" width="200" height="40" style="fill:white;stroke:black;stroke-width:1" /><text x="470" y="5180" font-size="10" style="fill:blue">vencedor</text><path d="M440 5190 C460 5190 440 5190 460 5190" style="fill:transparent;stroke:black" /><rect x="526" y="5170" width="137" height="40" style="fill:green;stroke:black;stroke-width:1" /><text x="536" y="5180" font-size="8" style="fill:white">Marc Márquez</text><rect x="460" y="5220" width="200" height="40" style="fill:white;stroke:black;stroke-width:1" /><text x="470" y="5230" font-size="10" style="fill:blue">tiempo</text><path d="M440 5190 C460 5190 440 5240 460 5240" style="fill:transparent;stroke:black" /><rect x="526" y="5220" width="137" height="40" style="fill:green;stroke:black;stroke-width:1" /><text x="536" y="5230" font-size="8" style="fill:white">PT41M23.678S</text><rect x="240" y="5320" width="200" height="40" style="fill:white;stroke:black;stroke-width:1" /><text x="250" y="5330" font-size="10" style="fill:blue">clasificacion</text><path d="M220 40 C240 40 220 5340 240 5340" style="fill:transparent;stroke:black" /><rect x="460" y="5320" width="200" height="40" style="fill:white;stroke:black;stroke-width:1" /><text x="470" y="5330" font-size="10" style="fill:blue">piloto1</text><path d="M440 5340 C460 5340 440 5340 460 5340" style="fill:transparent;stroke:black" /><rect x="526" y="5320" width="137" height="40" style="fill:green;stroke:black;stroke-width:1" /><text x="536" y="5330" font-size="8" style="fill:white">Marc Márquez</text><rect x="460" y="5370" width="200" height="40" style="fill:white;stroke:black;stroke-width:1" /><text x="470" y="5380" font-size="10" style="fill:blue">piloto2</text><path d="M440 5340 C460 5340 440 5390 460 5390" style="fill:transparent;stroke:black" /><rect x="526" y="5370" width="137" height="40" style="fill:green;stroke:black;stroke-width:1" /><text x="536" y="5380" font-size="8" style="fill:white">Pecco Bagnaia</text><rect x="460" y="5420" width="200" height="40" style="fill:white;stroke:black;stroke-width:1" /><text x="470" y="5430" font-size="10" style="fill:blue">piloto3</text><path d="M440 5340 C460 5340 440 5440 460 5440" style="fill:transparent;stroke:black" /><rect x="526" y="5420" width="137" height="40" style="fill:green;stroke:black;stroke-width:1" /><text x="536" y="5430" font-size="8" style="fill:white">Jorge Martín</text></svg>