<?xml version="1.0" encoding="utf-8"?><svg width="auto" height="5720" style="overflow:visible " version="1.1" xmlns="http://www.w3.org/2000/svg"><rect x="20" y="20" width="200" height="40" style="fill:white;stroke:black;stroke-width:1" /><text x="30" y="30" font-size="10" style="fill:blue">xs:schema</text><text x="30" y="40" font-size="8" style="fill:black">xmlns: http://www.uniovi.es</text><text x="30" y="50" font-size="8" style="fill:black">elementFormDefault: qualified</text><text x="30" y="60" font-size="8" style="fill:black">targetNamespace: http://www.uniovi.es</text><text x="30" y="70" font-size="8" style="fill:black">xmlns:xs: http://www.w3.org/2001/XMLSchema</text><rect x="240" y="20" width="200" height="40" style="fill:white;stroke:black;stroke-width:1" /><text x="250" y="30" font-size="10" style="fill:blue">xs:element</text><path d="M220 40 C240 40 220 40 240 40" style="fill:transparent;stroke:black" /><text x="250" y="40" font-size="8" style="fill:black">name: circuito</text><rect x="460" y="20" width="200" height="40" style="fill:white;stroke:black;stroke-width:1" /><text x="470" y="30" font-size="10" style="fill:blue">xs:complexType</text><path d="M440 40 C460 40 440 40 460 40" style="fill:transparent;stroke:black" /><rect x="680" y="20" width="200" height="40" style="fill:white;stroke:black;stroke-width:1" /><text x="690" y="30" font-size="10" style="fill:blue">xs:sequence</text><path d="M660 40 C680 40 660 40 680 40" style="fill:transparent;stroke:black" /><rect x="900" y="20" width="200" height="40" style="fill:white;stroke:black;stroke-width:1" /><text x="910" y="30" font-size="10" style="fill:blue">xs:element</text><path d="M880 40 C900 40 880 40 900 40" style="fill:transparent;stroke:black" /><text x="910" y="40" font-size="8" style="fill:black">ref: nombre</text><rect x="900" y="70" width="200" height="40" style="fill:white;stroke:black;stroke-width:1" /><text x="910" y="80" font-size="10" style="fill:blue">xs:element</text><path d="M880 40 C900 40 880 90 900 90" style="fill:transparent;stroke:black" /><text x="910" y="90" font-size="8" style="fill:black">ref: longitud</text><rect x="900" y="120" width="200" height="40" style="fill:white;stroke:black;stroke-width:1" /><text x="910" y="130" font-size="10" style="fill:blue">xs:element</text><path d="M880 40 C900 40 880 140 900 140" style="fill:transparent;stroke:black" /><text x="910" y="140" font-size="8" style="fill:black">ref: anchura</text><rect x="900" y="170" width="200" height="40" style="fill:white;stroke:black;stroke-width:1" /><text x="910" y="180" font-size="10" style="fill:blue">xs:element</text><path d="M880 40 C900 40 880 190 900 190" style="fill:transparent;stroke:black" /><text x="910" y="190" font-size="8" style="fill:black">ref: fecha</text><rect x="900" y="220" width="200" height="40" style="fill:white;stroke:black;stroke-width:1" /><text x="910" y="230" font-size="10" style="fill:blue">xs:element</text><path d="M880 40 C900 40 880 240 900 240" style="fill:transparent;stroke:black" /><text x="910" y="240" font-size="8" style="fill:black">ref: hora</text><rect x="900" y="270" width="200" height="40" style="fill:white;stroke:black;stroke-width:1" /><text x="910" y="280" font-size="10" style="fill:blue">xs:element</text><path d="M880 40 C900 40 880 290 900 290" style="fill:transparent;stroke:black" /><text x="910" y="290" font-size="8" style="fill:black">ref: vueltas</text><rect x="900" y="320" width="200" height="40" style="fill:white;stroke:black;stroke-width:1" /><text x="910" y="330" font-size="10" style="fill:blue">xs:element</text><path d="M880 40 C900 40 880 340 900 340" style="fill:transparent;stroke:black" /><text x="910" y="340" font-size="8" style="fill:black">ref: localidad</text><rect x="900" y="370" width="200" height="40" style="fill:white;stroke:black;stroke-width:1" /><text x="910" y="380" font-size="10" style="fill:blue">xs:element</text><path d="M880 40 C900 40 880 390 900 390" style="fill:transparent;stroke:black" /><text x="910" y="390" font-size="8" style="fill:black">ref: pais</text><rect x="900" y="420" width="200" height="40" style="fill:white;stroke:black;stroke-width:1" /><text x="910" y="430" font-size="10" style="fill:blue">xs:element</text><path d="M880 40 C900 40 880 440 900 440" style="fill:transparent;stroke:black" /><text x="910" y="440" font-size="8" style="fill:black">ref: patrocinador</text><rect x="900" y="470" width="200" height="40" style="fill:white;stroke:black;stroke-width:1" /><text x="910" y="480" font-size="10" style="fill:blue">xs:element</text><path d="M880 40 C900 40 880 490 900 490" style="fill:transparent;stroke:black" /><text x="910" y="490" font-size="8" style="fill:black">ref: referencias</text><rect x="900" y="520" width="200" height="40" style="fill:white;stroke:black;stroke-width:1" /><text x="910" y="530" font-size="10" style="fill:blue">xs:element</text><path d="M880 40 C900 40 880 540 900 540" style="fill:transparent;stroke:black" /><text x="910" y="540" font-size="8" style="fill:black">ref: fotos</text><rect x="900" y="570" width="200" height="40" style="fill:white;stroke:black;stroke-width:1" /><text x="910" y="580" font-size="10" style="fill:blue">xs:element</text><path d="M880 40 C900 40 880 590 900 590" style="fill:transparent;stroke:black" /><text x="910" y="590" font-size="8" style="fill:black">ref: videos</text><rect x="900" y="620" width="200" height="40" style="fill:white;stroke:black;stroke-width:1" /><text x="910" y="630" font-size="10" style="fill:blue">xs:element</text><path d="M880 40 C900 40 880 640 900 640" style="fill:transparent;stroke:black" /><text x="910" y="640" font-size="8" style="fill:black">ref: punto_origen</text><rect x="900" y="670" width="200" height="40" style="fill:white;stroke:black;stroke-width:1" /><text x="910" y="680" font-size="10" style="fill:blue">xs:element</text><path d="M880 40 C900 40 880 690 900 690" style="fill:transparent;stroke:black" /><text x="910" y="690" font-size="8" style="fill:black">ref: tramos</text><rect x="900" y="720" width="200" height="40" style="fill:white;stroke:black;stroke-width:1" /><text x="910" y="730" font-size="10" style="fill:blue">xs:element</text><path d="M880 40 C900 40 880 740 900 740" style="fill:transparent;stroke:black" /><text x="910" y="740" font-size="8" style="fill:black">ref: resultado</text><rect x="900" y="770" width="200" height="40" style="fill:white;stroke:black;stroke-width:1" /><text x="910" y="780" font-size="10" style="fill:blue">xs:element</text><path d="M880 40 C900 40 880 790 900 790" style="fill:transparent;stroke:black" /><text x="910" y="790" font-size="8" style="fill:black">ref: clasificacion</text><rect x="240" y="970" width="200" height="40" style="fill:white;stroke:black;stroke-width:1" /><text x="250" y="980" font-size="10" style="fill:blue">xs:element</text><path d="M220 40 C240 40 220 990 240 990" style="fill:transparent;stroke:black" /><text x="250" y="990" font-size="8" style="fill:black">name: nombre</text><text x="250" y="1000" font-size="8" style="fill:black">type: xs:string</text><rect x="240" y="1020" width="200" height="40" style="fill:white;stroke:black;stroke-width:1" /><text x="250" y="1030" font-size="10" style="fill:blue">xs:element</text><path d="M220 40 C240 40 220 1040 240 1040" style="fill:transparent;stroke:black" /><text x="250" y="1040" font-size="8" style="fill:black">name: longitud</text><rect x="460" y="1020" width="200" height="40" style="fill:white;stroke:black;stroke-width:1" /><text x="470" y="1030" font-size="10" style="fill:blue">xs:complexType</text><path d="M440 1040 C460 1040 440 1040 460 1040" style="fill:transparent;stroke:black" /><rect x="680" y="1020" width="200" height="40" style="fill:white;stroke:black;stroke-width:1" /><text x="690" y="1030" font-size="10" style="fill:blue">xs:simpleContent</text><path d="M660 1040 C680 1040 660 1040 680 1040" style="fill:transparent;stroke:black" /><rect x="900" y="1020" width="200" height="40" style="fill:white;stroke:black;stroke-width:1" /><text x="910" y="1030" font-size="10" style="fill:blue">xs:extension</text><path d="M880 1040 C900 1040 880 1040 900 1040" style="fill:transparent;stroke:black" /><text x="910" y="1040" font-size="8" style="fill:black">base: xs:float</text><rect x="1120" y="1020" width="200" height="40" style="fill:white;stroke:black;stroke-width:1" /><text x="1130" y="1030" font-size="10" style="fill:blue">xs:attribute</text><path d="M1100 1040 C1120 1040 1100 1040 1120 1040" style="fill:transparent;stroke:black" /><text x="1130" y="1040" font-size="8" style="fill:black">name: unidades</text><text x="1130" y="1050" font-size="8" style="fill:black">type: xs:string</text><text x="1130" y="1060" font-size="8" style="fill:black">use: required</text><rect x="240" y="1270" width="200" height="40" style="fill:white;stroke:black;stroke-width:1" /><text x="250" y="1280" font-size="10" style="fill:blue">xs:element</text><path d="M220 40 C240 40 220 1290 240 1290" style="fill:transparent;stroke:black" /><text x="250" y="1290" font-size="8" style="fill:black">name: anchura</text><rect x="460" y="1270" width="200" height="40" style="fill:white;stroke:black;stroke-width:1" /><text x="470" y="1280" font-size="10" style="fill:blue">xs:complexType</text><path d="M440 1290 C460 1290 440 1290 460 1290" style="fill:transparent;stroke:black" /><rect x="680" y="1270" width="200" height="40" style="fill:white;stroke:black;stroke-width:1" /><text x="690" y="1280" font-size="10" style="fill:blue">xs:simpleContent</text><path d="M660 1290 C680 1290 660 1290 680 1290" style="fill:transparent;stroke:black" /><rect x="900" y="1270" width="200" height="40" style="fill:white;stroke:black;stroke-width:1" /><text x="910" y="1280" font-size="10" style="fill:blue">xs:extension</text><path d="M880 1290 C900 1290 880 1290 900 1290" style="fill:transparent;stroke:black" /><text x="910" y="1290" font-size="8" style="fill:black">base: xs:float</text><rect x="1120" y="1270" width="200" height="40" style="fill:white;stroke:black;stroke-width:1" /><text x="1130" y="1280" font-size="10" style="fill:blue">xs:attribute</text><path d="M1100 1290 C1120 1290 1100 1290 1120 1290" style="fill:transparent;stroke:black" /><text x="1130" y="1290" font-size="8" style="fill:black">name: unidades</text><text x="1130" y="1300" font-size="8" style="fill:black">type: xs:string</text><text x="1130" y="1310" font-size="8" style="fill:black">use: required</text><rect x="240" y="1520" width="200" height="40" style="fill:white;stroke:black;stroke-width:1" /><text x="250" y="1530" font-size="10" style="fill:blue">xs:element</text><path d="M220 40 C240 40 220 1540 240 1540" style="fill:transparent;stroke:black" /><text x="250" y="1540" font-size="8" style="fill:black">name: fecha</text><text x="250" y="1550" font-size="8" style="fill:black">type: xs:date</text><rect x="240" y="1570" width="200" height="40" style="fill:white;stroke:black;stroke-width:1" /><text x="250" y="1580" font-size="10" style="fill:blue">xs:element</text><path d="M220 40 C240 40 220 1590 240 1590" style="fill:transparent;stroke:black" /><text x="250" y="1590" font-size="8" style="fill:black">name: hora</text><text x="250" y="1600" font-size="8" style="fill:black">type: xs:time</text><rect x="240" y="1620" width="200" height="40" style="fill:white;stroke:black;stroke-width:1" /><text x="250" y="1630" font-size="10" style="fill:blue">xs:element</text><path d="M220 40 C240 40 220 1640 240 1640" style="fill:transparent;stroke:black" /><text x="250" y="1640" font-size="8" style="fill:black">name: vueltas</text><text x="250" y="1650" font-size="8" style="fill:black">type: xs:positiveInteger</text><rect x="240" y="1670" width="200" height="40" style="fill:white;stroke:black;stroke-width:1" /><text x="250" y="1680" font-size="10" style="fill:blue">xs:element</text><path d="M220 40 C240 40 220 1690 240 1690" style="fill:transparent;stroke:black" /><text x="250" y="1690" font-size="8" style="fill:black">name: localidad</text><text x="250" y="1700" font-size="8" style="fill:black">type: xs:string</text><rect x="240" y="1720" width="200" height="40" style="fill:white;stroke:black;stroke-width:1" /><text x="250" y="1730" font-size="10" style="fill:blue">xs:element</text><path d="M220 40 C240 40 220 1740 240 1740" style="fill:transparent;stroke:black" /><text x="250" y="1740" font-size="8" style="fill:black">name: pais</text><text x="250" y="1750" font-size="8" style="fill:black">type: xs:string</text><rect x="240" y="1770" width="200" height="40" style="fill:white;stroke:black;stroke-width:1" /><text x="250" y="1780" font-size="10" style="fill:blue">xs:element</text><path d="M220 40 C240 40 220 1790 240 1790" style="fill:transparent;stroke:black" /><text x="250" y="1790" font-size="8" style="fill:black">name: patrocinador</text><text x="250" y="1800" font-size="8" style="fill:black">type: xs:string</text><rect x="240" y="1820" width="200" height="40" style="fill:white;stroke:black;stroke-width:1" /><text x="250" y="1830" font-size="10" style="fill:blue">xs:element</text><path d="M220 40 C240 40 220 1840 240 1840" style="fill:transparent;stroke:black" /><text x="250" y="1840" font-size="8" style="fill:black">name: referencias</text><rect x="460" y="1820" width="200" height="40" style="fill:white;stroke:black;stroke-width:1" /><text x="470" y="1830" font-size="10" style="fill:blue">xs:complexType</text><path d="M440 1840 C460 1840 440 1840 460 1840" style="fill:transparent;stroke:black" /><rect x="680" y="1820" width="200" height="40" style="fill:white;stroke:black;stroke-width:1" /><text x="690" y="1830" font-size="10" style="fill:blue">xs:sequence</text><path d="M660 1840 C680 1840 660 1840 680 1840" style="fill:transparent;stroke:black" /><rect x="900" y="1820" width="200" height="40" style="fill:white;stroke:black;stroke-width:1" /><text x="910" y="1830" font-size="10" style="fill:blue">xs:element</text><path d="M880 1840 C900 1840 880 1840 900 1840" style="fill:transparent;stroke:black" /><text x="910" y="1840" font-size="8" style="fill:black">minOccurs: 1</text><text x="910" y="1850" font-size="8" style="fill:black">maxOccurs: unbounded</text><text x="910" y="1860" font-size="8" style="fill:black">ref: referencia</text><rect x="240" y="2020" width="200" height="40" style="fill:white;stroke:black;stroke-width:1" /><text x="250" y="2030" font-size="10" style="fill:blue">xs:element</text><path d="M220 40 C240 40 220 2040 240 2040" style="fill:transparent;stroke:black" /><text x="250" y="2040" font-size="8" style="fill:black">name: referencia</text><text x="250" y="2050" font-size="8" style="fill:black">type: xs:anyURI</text><rect x="240" y="2070" width="200" height="40" style="fill:white;stroke:black;stroke-width:1" /><text x="250" y="2080" font-size="10" style="fill:blue">xs:element</text><path d="M220 40 C240 40 220 2090 240 2090" style="fill:transparent;stroke:black" /><text x="250" y="2090" font-size="8" style="fill:black">name: fotos</text><rect x="460" y="2070" width="200" height="40" style="fill:white;stroke:black;stroke-width:1" /><text x="470" y="2080" font-size="10" style="fill:blue">xs:complexType</text><path d="M440 2090 C460 2090 440 2090 460 2090" style="fill:transparent;stroke:black" /><rect x="680" y="2070" width="200" height="40" style="fill:white;stroke:black;stroke-width:1" /><text x="690" y="2080" font-size="10" style="fill:blue">xs:sequence</text><path d="M660 2090 C680 2090 660 2090 680 2090" style="fill:transparent;stroke:black" /><rect x="900" y="2070" width="200" height="40" style="fill:white;stroke:black;stroke-width:1" /><text x="910" y="2080" font-size="10" style="fill:blue">xs:element</text><path d="M880 2090 C900 2090 880 2090 900 2090" style="fill:transparent;stroke:black" /><text x="910" y="2090" font-size="8" style="fill:black">minOccurs: 1</text><text x="910" y="2100" font-size="8" style="fill:black">maxOccurs: 3</text><text x="910" y="2110" font-size="8" style="fill:black">ref: foto</text><rect x="240" y="2270" width="200" height="40" style="fill:white;stroke:black;stroke-width:1" /><text x="250" y="2280" font-size="10" style="fill:blue">xs:element</text><path d="M220 40 C240 40 220 2290 240 2290" style="fill:transparent;stroke:black" /><text x="250" y="2290" font-size="8" style="fill:black">name: foto</text><rect x="460" y="2270" width="200" height="40" style="fill:white;stroke:black;stroke-width:1" /><text x="470" y="2280" font-size="10" style="fill:blue">xs:complexType</text><path d="M440 2290 C460 2290 440 2290 460 2290" style="fill:transparent;stroke:black" /><rect x="680" y="2270" width="200" height="40" style="fill:white;stroke:black;stroke-width:1" /><text x="690" y="2280" font-size="10" style="fill:blue">xs:simpleContent</text><path d="M660 2290 C680 2290 660 2290 680 2290" style="fill:transparent;stroke:black" /><rect x="900" y="2270" width="200" height="40" style="fill:white;stroke:black;stroke-width:1" /><text x="910" y="2280" font-size="10" style="fill:blue">xs:extension</text><path d="M880 2290 C900 2290 880 2290 900 2290" style="fill:transparent;stroke:black" /><text x="910" y="2290" font-size="8" style="fill:black">base: xs:string</text><rect x="1120" y="2270" width="200" height="40" style="fill:white;stroke:black;stroke-width:1" /><text x="1130" y="2280" font-size="10" style="fill:blue">xs:attribute</text><path d="M1100 2290 C1120 2290 1100 2290 1120 2290" style="fill:transparent;stroke:black" /><text x="1130" y="2290" font-size="8" style="fill:black">name: archivo</text><text x="1130" y="2300" font-size="8" style="fill:black">type: xs:string</text><text x="1130" y="2310" font-size="8" style="fill:black">use: required</text><rect x="240" y="2520" width="200" height="40" style="fill:white;stroke:black;stroke-width:1" /><text x="250" y="2530" font-size="10" style="fill:blue">xs:element</text><path d="M220 40 C240 40 220 2540 240 2540" style="fill:transparent;stroke:black" /><text x="250" y="2540" font-size="8" style="fill:black">name: videos</text><rect x="460" y="2520" width="200" height="40" style="fill:white;stroke:black;stroke-width:1" /><text x="470" y="2530" font-size="10" style="fill:blue">xs:complexType</text><path d="M440 2540 C460 2540 440 2540 460 2540" style="fill:transparent;stroke:black" /><rect x="680" y="2520" width="200" height="40" style="fill:white;stroke:black;stroke-width:1" /><text x="690" y="2530" font-size="10" style="fill:blue">xs:sequence</text><path d="M660 2540 C680 2540 660 2540 680 2540" style="fill:transparent;stroke:black" /><rect x="900" y="2520" width="200" height="40" style="fill:white;stroke:black;stroke-width:1" /><text x="910" y="2530" font-size="10" style="fill:blue">xs:element</text><path d="M880 2540 C900 2540 880 2540 900 2540" style="fill:transparent;stroke:black" /><text x="910" y="2540" font-size="8" style="fill:black">minOccurs: 1</text><text x="910" y="2550" font-size="8" style="fill:black">maxOccurs: 2</text><text x="910" y="2560" font-size="8" style="fill:black">ref: video</text><rect x="240" y="2720" width="200" height="40" style="fill:white;stroke:black;stroke-width:1" /><text x="250" y="2730" font-size="10" style="fill:blue">xs:element</text><path d="M220 40 C240 40 220 2740 240 2740" style="fill:transparent;stroke:black" /><text x="250" y="2740" font-size="8" style="fill:black">name: video</text><rect x="460" y="2720" width="200" height="40" style="fill:white;stroke:black;stroke-width:1" /><text x="470" y="2730" font-size="10" style="fill:blue">xs:complexType</text><path d="M440 2740 C460 2740 440 2740 460 2740" style="fill:transparent;stroke:black" /><rect x="680" y="2720" width="200" height="40" style="fill:white;stroke:black;stroke-width:1" /><text x="690" y="2730" font-size="10" style="fill:blue">xs:simpleContent</text><path d="M660 2740 C680 2740 660 2740 680 2740" style="fill:transparent;stroke:black" /><rect x="900" y="2720" width="200" height="40" style="fill:white;stroke:black;stroke-width:1" /><text x="910" y="2730" font-size="10" style="fill:blue">xs:extension</text><path d="M880 2740 C900 2740 880 2740 900 2740" style="fill:transparent;stroke:black" /><text x="910" y="2740" font-size="8" style="fill:black">base: xs:string</text><rect x="1120" y="2720" width="200" height="40" style="fill:white;stroke:black;stroke-width:1" /><text x="1130" y="2730" font-size="10" style="fill:blue">xs:attribute</text><path d="M1100 2740 C1120 2740 1100 2740 1120 2740" style="fill:transparent;stroke:black" /><text x="1130" y="2740" font-size="8" style="fill:black">name: archivo</text><text x="1130" y="2750" font-size="8" style="fill:black">type: xs:string</text><text x="1130" y="2760" font-size="8" style="fill:black">use: required</text><rect x="240" y="2970" width="200" height="40" style="fill:white;stroke:black;stroke-width:1" /><text x="250" y="2980" font-size="10" style="fill:blue">xs:element</text><path d="M220 40 C240 40 220 2990 240 2990" style="fill:transparent;stroke:black" /><text x="250" y="2990" font-size="8" style="fill:black">name: punto_origen</text><rect x="460" y="2970" width="200" height="40" style="fill:white;stroke:black;stroke-width:1" /><text x="470" y="2980" font-size="10" style="fill:blue">xs:complexType</text><path d="M440 2990 C460 2990 440 2990 460 2990" style="fill:transparent;stroke:black" /><rect x="680" y="2970" width="200" height="40" style="fill:white;stroke:black;stroke-width:1" /><text x="690" y="2980" font-size="10" style="fill:blue">xs:sequence</text><path d="M660 2990 C680 2990 660 2990 680 2990" style="fill:transparent;stroke:black" /><rect x="900" y="2970" width="200" height="40" style="fill:white;stroke:black;stroke-width:1" /><text x="910" y="2980" font-size="10" style="fill:blue">xs:element</text><path d="M880 2990 C900 2990 880 2990 900 2990" style="fill:transparent;stroke:black" /><text x="910" y="2990" font-size="8" style="fill:black">ref: longitud_geo</text><rect x="900" y="3020" width="200" height="40" style="fill:white;stroke:black;stroke-width:1" /><text x="910" y="3030" font-size="10" style="fill:blue">xs:element</text><path d="M880 2990 C900 2990 880 3040 900 3040" style="fill:transparent;stroke:black" /><text x="910" y="3040" font-size="8" style="fill:black">ref: latitud_geo</text><rect x="900" y="3070" width="200" height="40" style="fill:white;stroke:black;stroke-width:1" /><text x="910" y="3080" font-size="10" style="fill:blue">xs:element</text><path d="M880 2990 C900 2990 880 3090 900 3090" style="fill:transparent;stroke:black" /><text x="910" y="3090" font-size="8" style="fill:black">ref: altitud_geo</text><rect x="240" y="3270" width="200" height="40" style="fill:white;stroke:black;stroke-width:1" /><text x="250" y="3280" font-size="10" style="fill:blue">xs:element</text><path d="M220 40 C240 40 220 3290 240 3290" style="fill:transparent;stroke:black" /><text x="250" y="3290" font-size="8" style="fill:black">name: longitud_geo</text><rect x="460" y="3270" width="200" height="40" style="fill:white;stroke:black;stroke-width:1" /><text x="470" y="3280" font-size="10" style="fill:blue">xs:simpleType</text><path d="M440 3290 C460 3290 440 3290 460 3290" style="fill:transparent;stroke:black" /><rect x="680" y="3270" width="200" height="40" style="fill:white;stroke:black;stroke-width:1" /><text x="690" y="3280" font-size="10" style="fill:blue">xs:restriction</text><path d="M660 3290 C680 3290 660 3290 680 3290" style="fill:transparent;stroke:black" /><text x="690" y="3290" font-size="8" style="fill:black">base: xs:float</text><rect x="900" y="3270" width="200" height="40" style="fill:white;stroke:black;stroke-width:1" /><text x="910" y="3280" font-size="10" style="fill:blue">xs:minInclusive</text><path d="M880 3290 C900 3290 880 3290 900 3290" style="fill:transparent;stroke:black" /><text x="910" y="3290" font-size="8" style="fill:black">value: -180</text><rect x="900" y="3320" width="200" height="40" style="fill:white;stroke:black;stroke-width:1" /><text x="910" y="3330" font-size="10" style="fill:blue">xs:maxInclusive</text><path d="M880 3290 C900 3290 880 3340 900 3340" style="fill:transparent;stroke:black" /><text x="910" y="3340" font-size="8" style="fill:black">value: 180</text><rect x="240" y="3520" width="200" height="40" style="fill:white;stroke:black;stroke-width:1" /><text x="250" y="3530" font-size="10" style="fill:blue">xs:element</text><path d="M220 40 C240 40 220 3540 240 3540" style="fill:transparent;stroke:black" /><text x="250" y="3540" font-size="8" style="fill:black">name: latitud_geo</text><rect x="460" y="3520" width="200" height="40" style="fill:white;stroke:black;stroke-width:1" /><text x="470" y="3530" font-size="10" style="fill:blue">xs:simpleType</text><path d="M440 3540 C460 3540 440 3540 460 3540" style="fill:transparent;stroke:black" /><rect x="680" y="3520" width="200" height="40" style="fill:white;stroke:black;stroke-width:1" /><text x="690" y="3530" font-size="10" style="fill:blue">xs:restriction</text><path d="M660 3540 C680 3540 660 3540 680 3540" style="fill:transparent;stroke:black" /><text x="690" y="3540" font-size="8" style="fill:black">base: xs:float</text><rect x="900" y="3520" width="200" height="40" style="fill:white;stroke:black;stroke-width:1" /><text x="910" y="3530" font-size="10" style="fill:blue">xs:minInclusive</text><path d="M880 3540 C900 3540 880 3540 900 3540" style="fill:transparent;stroke:black" /><text x="910" y="3540" font-size="8" style="fill:black">value: -90</text><rect x="900" y="3570" width="200" height="40" style="fill:white;stroke:black;stroke-width:1" /><text x="910" y="3580" font-size="10" style="fill:blue">xs:maxInclusive</text><path d="M880 3540 C900 3540 880 3590 900 3590" style="fill:transparent;stroke:black" /><text x="910" y="3590" font-size="8" style="fill:black">value: 90</text><rect x="240" y="3770" width="200" height="40" style="fill:white;stroke:black;stroke-width:1" /><text x="250" y="3780" font-size="10" style="fill:blue">xs:element</text><path d="M220 40 C240 40 220 3790 240 3790" style="fill:transparent;stroke:black" /><text x="250" y="3790" font-size="8" style="fill:black">name: altitud_geo</text><rect x="460" y="3770" width="200" height="40" style="fill:white;stroke:black;stroke-width:1" /><text x="470" y="3780" font-size="10" style="fill:blue">xs:simpleType</text><path d="M440 3790 C460 3790 440 3790 460 3790" style="fill:transparent;stroke:black" /><rect x="680" y="3770" width="200" height="40" style="fill:white;stroke:black;stroke-width:1" /><text x="690" y="3780" font-size="10" style="fill:blue">xs:restriction</text><path d="M660 3790 C680 3790 660 3790 680 3790" style="fill:transparent;stroke:black" /><text x="690" y="3790" font-size="8" style="fill:black">base: xs:float</text><rect x="900" y="3770" width="200" height="40" style="fill:white;stroke:black;stroke-width:1" /><text x="910" y="3780" font-size="10" style="fill:blue">xs:minInclusive</text><path d="M880 3790 C900 3790 880 3790 900 3790" style="fill:transparent;stroke:black" /><text x="910" y="3790" font-size="8" style="fill:black">value: 0</text><rect x="240" y="3970" width="200" height="40" style="fill:white;stroke:black;stroke-width:1" /><text x="250" y="3980" font-size="10" style="fill:blue">xs:element</text><path d="M220 40 C240 40 220 3990 240 3990" style="fill:transparent;stroke:black" /><text x="250" y="3990" font-size="8" style="fill:black">name: tramos</text><rect x="460" y="3970" width="200" height="40" style="fill:white;stroke:black;stroke-width:1" /><text x="470" y="3980" font-size="10" style="fill:blue">xs:complexType</text><path d="M440 3990 C460 3990 440 3990 460 3990" style="fill:transparent;stroke:black" /><rect x="680" y="3970" width="200" height="40" style="fill:white;stroke:black;stroke-width:1" /><text x="690" y="3980" font-size="10" style="fill:blue">xs:sequence</text><path d="M660 3990 C680 3990 660 3990 680 3990" style="fill:transparent;stroke:black" /><rect x="900" y="3970" width="200" height="40" style="fill:white;stroke:black;stroke-width:1" /><text x="910" y="3980" font-size="10" style="fill:blue">xs:element</text><path d="M880 3990 C900 3990 880 3990 900 3990" style="fill:transparent;stroke:black" /><text x="910" y="3990" font-size="8" style="fill:black">minOccurs: 1</text><text x="910" y="4000" font-size="8" style="fill:black">maxOccurs: unbounded</text><text x="910" y="4010" font-size="8" style="fill:black">ref: tramo</text><rect x="240" y="4170" width="200" height="40" style="fill:white;stroke:black;stroke-width:1" /><text x="250" y="4180" font-size="10" style="fill:blue">xs:element</text><path d="M220 40 C240 40 220 4190 240 4190" style="fill:transparent;stroke:black" /><text x="250" y="4190" font-size="8" style="fill:black">name: tramo</text><rect x="460" y="4170" width="200" height="40" style="fill:white;stroke:black;stroke-width:1" /><text x="470" y="4180" font-size="10" style="fill:blue">xs:complexType</text><path d="M440 4190 C460 4190 440 4190 460 4190" style="fill:transparent;stroke:black" /><rect x="680" y="4170" width="200" height="40" style="fill:white;stroke:black;stroke-width:1" /><text x="690" y="4180" font-size="10" style="fill:blue">xs:sequence</text><path d="M660 4190 C680 4190 660 4190 680 4190" style="fill:transparent;stroke:black" /><rect x="900" y="4170" width="200" height="40" style="fill:white;stroke:black;stroke-width:1" /><text x="910" y="4180" font-size="10" style="fill:blue">xs:element</text><path d="M880 4190 C900 4190 880 4190 900 4190" style="fill:transparent;stroke:black" /><text x="910" y="4190" font-size="8" style="fill:black">ref: distancia</text><rect x="900" y="4220" width="200" height="40" style="fill:white;stroke:black;stroke-width:1" /><text x="910" y="4230" font-size="10" style="fill:blue">xs:element</text><path d="M880 4190 C900 4190 880 4240 900 4240" style="fill:transparent;stroke:black" /><text x="910" y="4240" font-size="8" style="fill:black">ref: longitud_geo</text><rect x="900" y="4270" width="200" height="40" style="fill:white;stroke:black;stroke-width:1" /><text x="910" y="4280" font-size="10" style="fill:blue">xs:element</text><path d="M880 4190 C900 4190 880 4290 900 4290" style="fill:transparent;stroke:black" /><text x="910" y="4290" font-size="8" style="fill:black">ref: latitud_geo</text><rect x="900" y="4320" width="200" height="40" style="fill:white;stroke:black;stroke-width:1" /><text x="910" y="4330" font-size="10" style="fill:blue">xs:element</text><path d="M880 4190 C900 4190 880 4340 900 4340" style="fill:transparent;stroke:black" /><text x="910" y="4340" font-size="8" style="fill:black">ref: altitud_geo</text><rect x="900" y="4370" width="200" height="40" style="fill:white;stroke:black;stroke-width:1" /><text x="910" y="4380" font-size="10" style="fill:blue">xs:element</text><path d="M880 4190 C900 4190 880 4390 900 4390" style="fill:transparent;stroke:black" /><text x="910" y="4390" font-size="8" style="fill:black">ref: sector</text><rect x="240" y="4570" width="200" height="40" style="fill:white;stroke:black;stroke-width:1" /><text x="250" y="4580" font-size="10" style="fill:blue">xs:element</text><path d="M220 40 C240 40 220 4590 240 4590" style="fill:transparent;stroke:black" /><text x="250" y="4590" font-size="8" style="fill:black">name: distancia</text><rect x="460" y="4570" width="200" height="40" style="fill:white;stroke:black;stroke-width:1" /><text x="470" y="4580" font-size="10" style="fill:blue">xs:complexType</text><path d="M440 4590 C460 4590 440 4590 460 4590" style="fill:transparent;stroke:black" /><rect x="680" y="4570" width="200" height="40" style="fill:white;stroke:black;stroke-width:1" /><text x="690" y="4580" font-size="10" style="fill:blue">xs:simpleContent</text><path d="M660 4590 C680 4590 660 4590 680 4590" style="fill:transparent;stroke:black" /><rect x="900" y="4570" width="200" height="40" style="fill:white;stroke:black;stroke-width:1" /><text x="910" y="4580" font-size="10" style="fill:blue">xs:extension</text><path d="M880 4590 C900 4590 880 4590 900 4590" style="fill:transparent;stroke:black" /><text x="910" y="4590" font-size="8" style="fill:black">base: xs:float</text><rect x="1120" y="4570" width="200" height="40" style="fill:white;stroke:black;stroke-width:1" /><text x="1130" y="4580" font-size="10" style="fill:blue">xs:attribute</text><path d="M1100 4590 C1120 4590 1100 4590 1120 4590" style="fill:transparent;stroke:black" /><text x="1130" y="4590" font-size="8" style="fill:black">name: unidades</text><text x="1130" y="4600" font-size="8" style="fill:black">type: xs:string</text><text x="1130" y="4610" font-size="8" style="fill:black">use: required</text><rect x="240" y="4820" width="200" height="40" style="fill:white;stroke:black;stroke-width:1" /><text x="250" y="4830" font-size="10" style="fill:blue">xs:element</text><path d="M220 40 C240 40 220 4840 240 4840" style="fill:transparent;stroke:black" /><text x="250" y="4840" font-size="8" style="fill:black">name: sector</text><text x="250" y="4850" font-size="8" style="fill:black">type: xs:positiveInteger</text><rect x="240" y="4870" width="200" height="40" style="fill:white;stroke:black;stroke-width:1" /><text x="250" y="4880" font-size="10" style="fill:blue">xs:element</text><path d="M220 40 C240 40 220 4890 240 4890" style="fill:transparent;stroke:black" /><text x="250" y="4890" font-size="8" style="fill:black">name: resultado</text><rect x="460" y="4870" width="200" height="40" style="fill:white;stroke:black;stroke-width:1" /><text x="470" y="4880" font-size="10" style="fill:blue">xs:complexType</text><path d="M440 4890 C460 4890 440 4890 460 4890" style="fill:transparent;stroke:black" /><rect x="680" y="4870" width="200" height="40" style="fill:white;stroke:black;stroke-width:1" /><text x="690" y="4880" font-size="10" style="fill:blue">xs:sequence</text><path d="M660 4890 C680 4890 660 4890 680 4890" style="fill:transparent;stroke:black" /><rect x="900" y="4870" width="200" height="40" style="fill:white;stroke:black;stroke-width:1" /><text x="910" y="4880" font-size="10" style="fill:blue">xs:element</text><path d="M880 4890 C900 4890 880 4890 900 4890" style="fill:transparent;stroke:black" /><text x="910" y="4890" font-size="8" style="fill:black">ref: vencedor</text><rect x="900" y="4920" width="200" height="40" style="fill:white;stroke:black;stroke-width:1" /><text x="910" y="4930" font-size="10" style="fill:blue">xs:element</text><path d="M880 4890 C900 4890 880 4940 900 4940" style="fill:transparent;stroke:black" /><text x="910" y="4940" font-size="8" style="fill:black">ref: tiempo</text><rect x="240" y="5120" width="200" height="40" style="fill:white;stroke:black;stroke-width:1" /><text x="250" y="5130" font-size="10" style="fill:blue">xs:element</text><path d="M220 40 C240 40 220 5140 240 5140" style="fill:transparent;stroke:black" /><text x="250" y="5140" font-size="8" style="fill:black">name: vencedor</text><text x="250" y="5150" font-size="8" style="fill:black">type: xs:string</text><rect x="240" y="5170" width="200" height="40" style="fill:white;stroke:black;stroke-width:1" /><text x="250" y="5180" font-size="10" style="fill:blue">xs:element</text><path d="M220 40 C240 40 220 5190 240 5190" style="fill:transparent;stroke:black" /><text x="250" y="5190" font-size="8" style="fill:black">name: tiempo</text><text x="250" y="5200" font-size="8" style="fill:black">type: xs:duration</text><rect x="240" y="5220" width="200" height="40" style="fill:white;stroke:black;stroke-width:1" /><text x="250" y="5230" font-size="10" style="fill:blue">xs:element</text><path d="M220 40 C240 40 220 5240 240 5240" style="fill:transparent;stroke:black" /><text x="250" y="5240" font-size="8" style="fill:black">name: clasificacion</text><rect x="460" y="5220" width="200" height="40" style="fill:white;stroke:black;stroke-width:1" /><text x="470" y="5230" font-size="10" style="fill:blue">xs:complexType</text><path d="M440 5240 C460 5240 440 5240 460 5240" style="fill:transparent;stroke:black" /><rect x="680" y="5220" width="200" height="40" style="fill:white;stroke:black;stroke-width:1" /><text x="690" y="5230" font-size="10" style="fill:blue">xs:sequence</text><path d="M660 5240 C680 5240 660 5240 680 5240" style="fill:transparent;stroke:black" /><rect x="900" y="5220" width="200" height="40" style="fill:white;stroke:black;stroke-width:1" /><text x="910" y="5230" font-size="10" style="fill:blue">xs:element</text><path d="M880 5240 C900 5240 880 5240 900 5240" style="fill:transparent;stroke:black" /><text x="910" y="5240" font-size="8" style="fill:black">ref: piloto1</text><rect x="900" y="5270" width="200" height="40" style="fill:white;stroke:black;stroke-width:1" /><text x="910" y="5280" font-size="10" style="fill:blue">xs:element</text><path d="M880 5240 C900 5240 880 5290 900 5290" style="fill:transparent;stroke:black" /><text x="910" y="5290" font-size="8" style="fill:black">ref: piloto2</text><rect x="900" y="5320" width="200" height="40" style="fill:white;stroke:black;stroke-width:1" /><text x="910" y="5330" font-size="10" style="fill:blue">xs:element</text><path d="M880 5240 C900 5240 880 5340 900 5340" style="fill:transparent;stroke:black" /><text x="910" y="5340" font-size="8" style="fill:black">ref: piloto3</text><rect x="240" y="5520" width="200" height="40" style="fill:white;stroke:black;stroke-width:1" /><text x="250" y="5530" font-size="10" style="fill:blue">xs:element</text><path d="M220 40 C240 40 220 5540 240 5540" style="fill:transparent;stroke:black" /><text x="250" y="5540" font-size="8" style="fill:black">name: piloto1</text><text x="250" y="5550" font-size="8" style="fill:black">type: xs:string</text><rect x="240" y="5570" width="200" height="40" style="fill:white;stroke:black;stroke-width:1" /><text x="250" y="5580" font-size="10" style="fill:blue">xs:element</text><path d="M220 40 C240 40 220 5590 240 5590" style="fill:transparent;stroke:black" /><text x="250" y="5590" font-size="8" style="fill:black">name: piloto2</text><text x="250" y="5600" font-size="8" style="fill:black">type: xs:string</text><rect x="240" y="5620" width="200" height="40" style="fill:white;stroke:black;stroke-width:1" /><text x="250" y="5630" font-size="10" style="fill:blue">xs:element</text><path d="M220 40 C240 40 220 5640 240 5640" style="fill:transparent;stroke:black" /><text x="250" y="5640" font-size="8" style="fill:black">name: piloto3</text><text x="250" y="5650" font-size="8" style="fill:black">type: xs:string</text></svg>